<mxfile host="app.diagrams.net" modified="2024-06-11T09:37:54.103Z" agent="Mozilla/5.0 (Windows NT 10.0; Win64; x64) AppleWebKit/537.36 (KHTML, like Gecko) Chrome/125.0.0.0 Safari/537.36" etag="u2BoQ0E1Ct1xnrEaOVC4" version="24.5.2" type="device">
  <diagram name="Page-1" id="UvGsvI7WDLGOxSDZg6XE">
    <mxGraphModel dx="1366" dy="1835" grid="1" gridSize="10" guides="1" tooltips="1" connect="1" arrows="1" fold="1" page="1" pageScale="1" pageWidth="850" pageHeight="1100" math="0" shadow="0">
      <root>
        <mxCell id="0" />
        <mxCell id="1" parent="0" />
        <mxCell id="ry9LyBkneQpmExAJehDU-2" value="" style="rounded=1;whiteSpace=wrap;html=1;fillColor=#f8cecc;strokeColor=#b85450;" vertex="1" parent="1">
          <mxGeometry x="360" y="-20" width="300" height="470" as="geometry" />
        </mxCell>
        <mxCell id="ry9LyBkneQpmExAJehDU-113" value="" style="edgeStyle=orthogonalEdgeStyle;rounded=0;orthogonalLoop=1;jettySize=auto;html=1;" edge="1" parent="1" source="ry9LyBkneQpmExAJehDU-4" target="ry9LyBkneQpmExAJehDU-110">
          <mxGeometry relative="1" as="geometry" />
        </mxCell>
        <mxCell id="ry9LyBkneQpmExAJehDU-4" value="Start" style="ellipse;whiteSpace=wrap;html=1;" vertex="1" parent="1">
          <mxGeometry x="486.5" y="6" width="93" height="60" as="geometry" />
        </mxCell>
        <mxCell id="ry9LyBkneQpmExAJehDU-7" value="&lt;font style=&quot;font-size: 43px;&quot;&gt;void PrintToDisplay()&lt;/font&gt;" style="text;html=1;align=center;verticalAlign=middle;whiteSpace=wrap;rounded=0;rotation=-90;" vertex="1" parent="1">
          <mxGeometry x="199" y="174" width="410" height="80" as="geometry" />
        </mxCell>
        <mxCell id="ry9LyBkneQpmExAJehDU-115" style="edgeStyle=orthogonalEdgeStyle;rounded=0;orthogonalLoop=1;jettySize=auto;html=1;entryX=0.5;entryY=0;entryDx=0;entryDy=0;" edge="1" parent="1" source="ry9LyBkneQpmExAJehDU-110" target="ry9LyBkneQpmExAJehDU-111">
          <mxGeometry relative="1" as="geometry" />
        </mxCell>
        <mxCell id="ry9LyBkneQpmExAJehDU-110" value="Serial.write(0xFF);&lt;div&gt;Serial.write(0xFF);&lt;br&gt;&lt;/div&gt;&lt;div&gt;Serial.write(0xFF);&lt;br&gt;&lt;/div&gt;" style="shape=parallelogram;perimeter=parallelogramPerimeter;whiteSpace=wrap;html=1;fixedSize=1;" vertex="1" parent="1">
          <mxGeometry x="449.5" y="86" width="167" height="70" as="geometry" />
        </mxCell>
        <mxCell id="ry9LyBkneQpmExAJehDU-116" value="" style="edgeStyle=orthogonalEdgeStyle;rounded=0;orthogonalLoop=1;jettySize=auto;html=1;" edge="1" parent="1" source="ry9LyBkneQpmExAJehDU-111" target="ry9LyBkneQpmExAJehDU-112">
          <mxGeometry relative="1" as="geometry" />
        </mxCell>
        <mxCell id="ry9LyBkneQpmExAJehDU-111" value="&lt;div&gt;Serial.print(print)&lt;/div&gt;" style="shape=parallelogram;perimeter=parallelogramPerimeter;whiteSpace=wrap;html=1;fixedSize=1;" vertex="1" parent="1">
          <mxGeometry x="449.5" y="186" width="167" height="40" as="geometry" />
        </mxCell>
        <mxCell id="ry9LyBkneQpmExAJehDU-118" value="" style="edgeStyle=orthogonalEdgeStyle;rounded=0;orthogonalLoop=1;jettySize=auto;html=1;" edge="1" parent="1" source="ry9LyBkneQpmExAJehDU-112" target="ry9LyBkneQpmExAJehDU-117">
          <mxGeometry relative="1" as="geometry" />
        </mxCell>
        <mxCell id="ry9LyBkneQpmExAJehDU-112" value="Serial.write(0xFF);&lt;div&gt;Serial.write(0xFF);&lt;br&gt;&lt;/div&gt;&lt;div&gt;Serial.write(0xFF);&lt;br&gt;&lt;/div&gt;" style="shape=parallelogram;perimeter=parallelogramPerimeter;whiteSpace=wrap;html=1;fixedSize=1;" vertex="1" parent="1">
          <mxGeometry x="449.5" y="266" width="167" height="70" as="geometry" />
        </mxCell>
        <mxCell id="ry9LyBkneQpmExAJehDU-117" value="End" style="ellipse;whiteSpace=wrap;html=1;" vertex="1" parent="1">
          <mxGeometry x="486.5" y="360" width="93" height="60" as="geometry" />
        </mxCell>
      </root>
    </mxGraphModel>
  </diagram>
</mxfile>
